<svg width="current" height="current" viewBox="0 0 28 28" fill="none" xmlns="http://www.w3.org/2000/svg">
<path d="M7.24219 26.1367C7.81641 26.1367 8.15625 25.8086 9.21094 24.7891L13.793 20.2773C13.8516 20.2188 13.957 20.2188 14.0039 20.2773L18.5859 24.7891C19.6406 25.8086 19.9805 26.1367 20.5547 26.1367C21.3398 26.1367 21.7969 25.6211 21.7969 24.707V4.36328C21.7969 2.13672 20.6836 1 18.4805 1H9.31641C7.11328 1 6 2.13672 6 4.36328V24.707C6 25.6211 6.45703 26.1367 7.24219 26.1367ZM8.20312 22.9727C8.03906 23.1367 7.85156 23.0898 7.85156 22.8555V4.38672C7.85156 3.37891 8.37891 2.85156 9.41016 2.85156H18.3984C19.418 2.85156 19.9453 3.37891 19.9453 4.38672V22.8555C19.9453 23.0898 19.7695 23.1367 19.5938 22.9727L14.5195 18.0508C14.1445 17.6875 13.6523 17.6875 13.2773 18.0508L8.20312 22.9727Z" fill="current"/>
</svg>
