<svg width="current" height="current" viewBox="0 0 28 28" fill="none" xmlns="http://www.w3.org/2000/svg">
<g clip-path="url(#clip0_579_4670)">
<path d="M14.0001 6.88341C15.3534 6.88341 16.4501 7.98008 16.4501 9.33341C16.4501 10.6867 15.3534 11.7834 14.0001 11.7834C12.6467 11.7834 11.5501 10.6867 11.5501 9.33341C11.5501 7.98008 12.6467 6.88341 14.0001 6.88341ZM14.0001 17.3834C17.4651 17.3834 21.1167 19.0867 21.1167 19.8334V21.1167H6.88341V19.8334C6.88341 19.0867 10.5351 17.3834 14.0001 17.3834ZM14.0001 4.66675C11.4217 4.66675 9.33341 6.75508 9.33341 9.33341C9.33341 11.9117 11.4217 14.0001 14.0001 14.0001C16.5784 14.0001 18.6667 11.9117 18.6667 9.33341C18.6667 6.75508 16.5784 4.66675 14.0001 4.66675ZM14.0001 15.1667C10.8851 15.1667 4.66675 16.7301 4.66675 19.8334V23.3334H23.3334V19.8334C23.3334 16.7301 17.1151 15.1667 14.0001 15.1667Z" fill="current"/>
</g>
<defs>
<clipPath id="clip0_579_4670">
<rect width="28" height="28" fill="none"/>
</clipPath>
</defs>
</svg>
